<?xml version="1.0" encoding="utf-8" standalone="no"?>
<!DOCTYPE svg PUBLIC "-//W3C//DTD SVG 1.1//EN"
  "http://www.w3.org/Graphics/SVG/1.1/DTD/svg11.dtd">
<!-- Created with matplotlib (https://matplotlib.org/) -->
<svg height="288pt" version="1.1" viewBox="0 0 432 288" width="432pt" xmlns="http://www.w3.org/2000/svg" xmlns:xlink="http://www.w3.org/1999/xlink">
 <metadata>
  <rdf:RDF xmlns:cc="http://creativecommons.org/ns#" xmlns:dc="http://purl.org/dc/elements/1.1/" xmlns:rdf="http://www.w3.org/1999/02/22-rdf-syntax-ns#">
   <cc:Work>
    <dc:type rdf:resource="http://purl.org/dc/dcmitype/StillImage"/>
    <dc:date>2022-01-13T16:36:16.783577</dc:date>
    <dc:format>image/svg+xml</dc:format>
    <dc:creator>
     <cc:Agent>
      <dc:title>Matplotlib v3.3.2, https://matplotlib.org/</dc:title>
     </cc:Agent>
    </dc:creator>
   </cc:Work>
  </rdf:RDF>
 </metadata>
 <defs>
  <style type="text/css">*{stroke-linecap:butt;stroke-linejoin:round;}</style>
 </defs>
 <g id="figure_1">
  <g id="patch_1">
   <path d="M 0 288 
L 432 288 
L 432 0 
L 0 0 
z
" style="fill:#ffffff;"/>
  </g>
  <g id="axes_1">
   <g id="patch_2">
    <path d="M 54 252 
L 388.8 252 
L 388.8 34.56 
L 54 34.56 
z
" style="fill:#ffffff;"/>
   </g>
   <g id="PathCollection_1">
    <defs>
     <path d="M 0 3 
C 0.795609 3 1.55874 2.683901 2.12132 2.12132 
C 2.683901 1.55874 3 0.795609 3 0 
C 3 -0.795609 2.683901 -1.55874 2.12132 -2.12132 
C 1.55874 -2.683901 0.795609 -3 0 -3 
C -0.795609 -3 -1.55874 -2.683901 -2.12132 -2.12132 
C -2.683901 -1.55874 -3 -0.795609 -3 0 
C -3 0.795609 -2.683901 1.55874 -2.12132 2.12132 
C -1.55874 2.683901 -0.795609 3 0 3 
z
" id="m2b5f3e2b93" style="stroke:#1f77b4;"/>
    </defs>
    <g clip-path="url(#p56ffbaf713)">
     <use style="fill:#1f77b4;stroke:#1f77b4;" x="69.218182" xlink:href="#m2b5f3e2b93" y="242.116364"/>
     <use style="fill:#1f77b4;stroke:#1f77b4;" x="72.292562" xlink:href="#m2b5f3e2b93" y="242.116364"/>
     <use style="fill:#1f77b4;stroke:#1f77b4;" x="75.366942" xlink:href="#m2b5f3e2b93" y="242.116364"/>
     <use style="fill:#1f77b4;stroke:#1f77b4;" x="78.441322" xlink:href="#m2b5f3e2b93" y="242.116364"/>
     <use style="fill:#1f77b4;stroke:#1f77b4;" x="81.515702" xlink:href="#m2b5f3e2b93" y="242.116364"/>
     <use style="fill:#1f77b4;stroke:#1f77b4;" x="84.590083" xlink:href="#m2b5f3e2b93" y="242.116364"/>
     <use style="fill:#1f77b4;stroke:#1f77b4;" x="87.664463" xlink:href="#m2b5f3e2b93" y="242.116364"/>
     <use style="fill:#1f77b4;stroke:#1f77b4;" x="90.738843" xlink:href="#m2b5f3e2b93" y="242.116364"/>
     <use style="fill:#1f77b4;stroke:#1f77b4;" x="93.813223" xlink:href="#m2b5f3e2b93" y="242.116364"/>
     <use style="fill:#1f77b4;stroke:#1f77b4;" x="96.887603" xlink:href="#m2b5f3e2b93" y="242.116364"/>
     <use style="fill:#1f77b4;stroke:#1f77b4;" x="99.961983" xlink:href="#m2b5f3e2b93" y="241.538373"/>
     <use style="fill:#1f77b4;stroke:#1f77b4;" x="103.036364" xlink:href="#m2b5f3e2b93" y="241.538373"/>
     <use style="fill:#1f77b4;stroke:#1f77b4;" x="106.110744" xlink:href="#m2b5f3e2b93" y="241.538373"/>
     <use style="fill:#1f77b4;stroke:#1f77b4;" x="109.185124" xlink:href="#m2b5f3e2b93" y="241.538373"/>
     <use style="fill:#1f77b4;stroke:#1f77b4;" x="112.259504" xlink:href="#m2b5f3e2b93" y="241.538373"/>
     <use style="fill:#1f77b4;stroke:#1f77b4;" x="115.333884" xlink:href="#m2b5f3e2b93" y="241.538373"/>
     <use style="fill:#1f77b4;stroke:#1f77b4;" x="118.408264" xlink:href="#m2b5f3e2b93" y="241.538373"/>
     <use style="fill:#1f77b4;stroke:#1f77b4;" x="121.482645" xlink:href="#m2b5f3e2b93" y="241.538373"/>
     <use style="fill:#1f77b4;stroke:#1f77b4;" x="124.557025" xlink:href="#m2b5f3e2b93" y="241.538373"/>
     <use style="fill:#1f77b4;stroke:#1f77b4;" x="127.631405" xlink:href="#m2b5f3e2b93" y="241.538373"/>
     <use style="fill:#1f77b4;stroke:#1f77b4;" x="130.705785" xlink:href="#m2b5f3e2b93" y="241.538373"/>
     <use style="fill:#1f77b4;stroke:#1f77b4;" x="133.780165" xlink:href="#m2b5f3e2b93" y="241.538373"/>
     <use style="fill:#1f77b4;stroke:#1f77b4;" x="136.854545" xlink:href="#m2b5f3e2b93" y="241.538373"/>
     <use style="fill:#1f77b4;stroke:#1f77b4;" x="139.928926" xlink:href="#m2b5f3e2b93" y="241.538373"/>
     <use style="fill:#1f77b4;stroke:#1f77b4;" x="143.003306" xlink:href="#m2b5f3e2b93" y="241.538373"/>
     <use style="fill:#1f77b4;stroke:#1f77b4;" x="146.077686" xlink:href="#m2b5f3e2b93" y="241.538373"/>
     <use style="fill:#1f77b4;stroke:#1f77b4;" x="149.152066" xlink:href="#m2b5f3e2b93" y="240.960383"/>
     <use style="fill:#1f77b4;stroke:#1f77b4;" x="152.226446" xlink:href="#m2b5f3e2b93" y="240.960383"/>
     <use style="fill:#1f77b4;stroke:#1f77b4;" x="155.300826" xlink:href="#m2b5f3e2b93" y="240.960383"/>
     <use style="fill:#1f77b4;stroke:#1f77b4;" x="158.375207" xlink:href="#m2b5f3e2b93" y="240.382392"/>
     <use style="fill:#1f77b4;stroke:#1f77b4;" x="161.449587" xlink:href="#m2b5f3e2b93" y="239.804402"/>
     <use style="fill:#1f77b4;stroke:#1f77b4;" x="164.523967" xlink:href="#m2b5f3e2b93" y="238.070431"/>
     <use style="fill:#1f77b4;stroke:#1f77b4;" x="167.598347" xlink:href="#m2b5f3e2b93" y="232.868517"/>
     <use style="fill:#1f77b4;stroke:#1f77b4;" x="170.672727" xlink:href="#m2b5f3e2b93" y="194.721148"/>
     <use style="fill:#1f77b4;stroke:#1f77b4;" x="173.747107" xlink:href="#m2b5f3e2b93" y="44.443636"/>
     <use style="fill:#1f77b4;stroke:#1f77b4;" x="176.821488" xlink:href="#m2b5f3e2b93" y="232.868517"/>
     <use style="fill:#1f77b4;stroke:#1f77b4;" x="179.895868" xlink:href="#m2b5f3e2b93" y="239.804402"/>
     <use style="fill:#1f77b4;stroke:#1f77b4;" x="182.970248" xlink:href="#m2b5f3e2b93" y="240.960383"/>
     <use style="fill:#1f77b4;stroke:#1f77b4;" x="186.044628" xlink:href="#m2b5f3e2b93" y="241.538373"/>
     <use style="fill:#1f77b4;stroke:#1f77b4;" x="189.119008" xlink:href="#m2b5f3e2b93" y="242.116364"/>
     <use style="fill:#1f77b4;stroke:#1f77b4;" x="192.193388" xlink:href="#m2b5f3e2b93" y="242.116364"/>
     <use style="fill:#1f77b4;stroke:#1f77b4;" x="195.267769" xlink:href="#m2b5f3e2b93" y="242.116364"/>
     <use style="fill:#1f77b4;stroke:#1f77b4;" x="198.342149" xlink:href="#m2b5f3e2b93" y="242.116364"/>
     <use style="fill:#1f77b4;stroke:#1f77b4;" x="201.416529" xlink:href="#m2b5f3e2b93" y="242.116364"/>
     <use style="fill:#1f77b4;stroke:#1f77b4;" x="204.490909" xlink:href="#m2b5f3e2b93" y="242.116364"/>
     <use style="fill:#1f77b4;stroke:#1f77b4;" x="207.565289" xlink:href="#m2b5f3e2b93" y="242.116364"/>
     <use style="fill:#1f77b4;stroke:#1f77b4;" x="210.639669" xlink:href="#m2b5f3e2b93" y="242.116364"/>
     <use style="fill:#1f77b4;stroke:#1f77b4;" x="213.71405" xlink:href="#m2b5f3e2b93" y="242.116364"/>
     <use style="fill:#1f77b4;stroke:#1f77b4;" x="216.78843" xlink:href="#m2b5f3e2b93" y="242.116364"/>
     <use style="fill:#1f77b4;stroke:#1f77b4;" x="219.86281" xlink:href="#m2b5f3e2b93" y="242.116364"/>
     <use style="fill:#1f77b4;stroke:#1f77b4;" x="222.93719" xlink:href="#m2b5f3e2b93" y="242.116364"/>
     <use style="fill:#1f77b4;stroke:#1f77b4;" x="226.01157" xlink:href="#m2b5f3e2b93" y="242.116364"/>
     <use style="fill:#1f77b4;stroke:#1f77b4;" x="229.08595" xlink:href="#m2b5f3e2b93" y="242.116364"/>
     <use style="fill:#1f77b4;stroke:#1f77b4;" x="232.160331" xlink:href="#m2b5f3e2b93" y="242.116364"/>
     <use style="fill:#1f77b4;stroke:#1f77b4;" x="235.234711" xlink:href="#m2b5f3e2b93" y="242.116364"/>
     <use style="fill:#1f77b4;stroke:#1f77b4;" x="238.309091" xlink:href="#m2b5f3e2b93" y="242.116364"/>
     <use style="fill:#1f77b4;stroke:#1f77b4;" x="241.383471" xlink:href="#m2b5f3e2b93" y="242.116364"/>
     <use style="fill:#1f77b4;stroke:#1f77b4;" x="244.457851" xlink:href="#m2b5f3e2b93" y="242.116364"/>
     <use style="fill:#1f77b4;stroke:#1f77b4;" x="247.532231" xlink:href="#m2b5f3e2b93" y="242.116364"/>
     <use style="fill:#1f77b4;stroke:#1f77b4;" x="250.606612" xlink:href="#m2b5f3e2b93" y="242.116364"/>
     <use style="fill:#1f77b4;stroke:#1f77b4;" x="253.680992" xlink:href="#m2b5f3e2b93" y="242.116364"/>
     <use style="fill:#1f77b4;stroke:#1f77b4;" x="256.755372" xlink:href="#m2b5f3e2b93" y="242.116364"/>
     <use style="fill:#1f77b4;stroke:#1f77b4;" x="259.829752" xlink:href="#m2b5f3e2b93" y="241.538373"/>
     <use style="fill:#1f77b4;stroke:#1f77b4;" x="262.904132" xlink:href="#m2b5f3e2b93" y="240.960383"/>
     <use style="fill:#1f77b4;stroke:#1f77b4;" x="265.978512" xlink:href="#m2b5f3e2b93" y="239.804402"/>
     <use style="fill:#1f77b4;stroke:#1f77b4;" x="269.052893" xlink:href="#m2b5f3e2b93" y="232.868517"/>
     <use style="fill:#1f77b4;stroke:#1f77b4;" x="272.127273" xlink:href="#m2b5f3e2b93" y="44.443636"/>
     <use style="fill:#1f77b4;stroke:#1f77b4;" x="275.201653" xlink:href="#m2b5f3e2b93" y="194.721148"/>
     <use style="fill:#1f77b4;stroke:#1f77b4;" x="278.276033" xlink:href="#m2b5f3e2b93" y="232.868517"/>
     <use style="fill:#1f77b4;stroke:#1f77b4;" x="281.350413" xlink:href="#m2b5f3e2b93" y="238.070431"/>
     <use style="fill:#1f77b4;stroke:#1f77b4;" x="284.424793" xlink:href="#m2b5f3e2b93" y="239.804402"/>
     <use style="fill:#1f77b4;stroke:#1f77b4;" x="287.499174" xlink:href="#m2b5f3e2b93" y="240.382392"/>
     <use style="fill:#1f77b4;stroke:#1f77b4;" x="290.573554" xlink:href="#m2b5f3e2b93" y="240.960383"/>
     <use style="fill:#1f77b4;stroke:#1f77b4;" x="293.647934" xlink:href="#m2b5f3e2b93" y="240.960383"/>
     <use style="fill:#1f77b4;stroke:#1f77b4;" x="296.722314" xlink:href="#m2b5f3e2b93" y="240.960383"/>
     <use style="fill:#1f77b4;stroke:#1f77b4;" x="299.796694" xlink:href="#m2b5f3e2b93" y="241.538373"/>
     <use style="fill:#1f77b4;stroke:#1f77b4;" x="302.871074" xlink:href="#m2b5f3e2b93" y="241.538373"/>
     <use style="fill:#1f77b4;stroke:#1f77b4;" x="305.945455" xlink:href="#m2b5f3e2b93" y="241.538373"/>
     <use style="fill:#1f77b4;stroke:#1f77b4;" x="309.019835" xlink:href="#m2b5f3e2b93" y="241.538373"/>
     <use style="fill:#1f77b4;stroke:#1f77b4;" x="312.094215" xlink:href="#m2b5f3e2b93" y="241.538373"/>
     <use style="fill:#1f77b4;stroke:#1f77b4;" x="315.168595" xlink:href="#m2b5f3e2b93" y="241.538373"/>
     <use style="fill:#1f77b4;stroke:#1f77b4;" x="318.242975" xlink:href="#m2b5f3e2b93" y="241.538373"/>
     <use style="fill:#1f77b4;stroke:#1f77b4;" x="321.317355" xlink:href="#m2b5f3e2b93" y="241.538373"/>
     <use style="fill:#1f77b4;stroke:#1f77b4;" x="324.391736" xlink:href="#m2b5f3e2b93" y="241.538373"/>
     <use style="fill:#1f77b4;stroke:#1f77b4;" x="327.466116" xlink:href="#m2b5f3e2b93" y="241.538373"/>
     <use style="fill:#1f77b4;stroke:#1f77b4;" x="330.540496" xlink:href="#m2b5f3e2b93" y="241.538373"/>
     <use style="fill:#1f77b4;stroke:#1f77b4;" x="333.614876" xlink:href="#m2b5f3e2b93" y="241.538373"/>
     <use style="fill:#1f77b4;stroke:#1f77b4;" x="336.689256" xlink:href="#m2b5f3e2b93" y="241.538373"/>
     <use style="fill:#1f77b4;stroke:#1f77b4;" x="339.763636" xlink:href="#m2b5f3e2b93" y="241.538373"/>
     <use style="fill:#1f77b4;stroke:#1f77b4;" x="342.838017" xlink:href="#m2b5f3e2b93" y="241.538373"/>
     <use style="fill:#1f77b4;stroke:#1f77b4;" x="345.912397" xlink:href="#m2b5f3e2b93" y="241.538373"/>
     <use style="fill:#1f77b4;stroke:#1f77b4;" x="348.986777" xlink:href="#m2b5f3e2b93" y="242.116364"/>
     <use style="fill:#1f77b4;stroke:#1f77b4;" x="352.061157" xlink:href="#m2b5f3e2b93" y="242.116364"/>
     <use style="fill:#1f77b4;stroke:#1f77b4;" x="355.135537" xlink:href="#m2b5f3e2b93" y="242.116364"/>
     <use style="fill:#1f77b4;stroke:#1f77b4;" x="358.209917" xlink:href="#m2b5f3e2b93" y="242.116364"/>
     <use style="fill:#1f77b4;stroke:#1f77b4;" x="361.284298" xlink:href="#m2b5f3e2b93" y="242.116364"/>
     <use style="fill:#1f77b4;stroke:#1f77b4;" x="364.358678" xlink:href="#m2b5f3e2b93" y="242.116364"/>
     <use style="fill:#1f77b4;stroke:#1f77b4;" x="367.433058" xlink:href="#m2b5f3e2b93" y="242.116364"/>
     <use style="fill:#1f77b4;stroke:#1f77b4;" x="370.507438" xlink:href="#m2b5f3e2b93" y="242.116364"/>
     <use style="fill:#1f77b4;stroke:#1f77b4;" x="373.581818" xlink:href="#m2b5f3e2b93" y="242.116364"/>
    </g>
   </g>
   <g id="matplotlib.axis_1">
    <g id="xtick_1">
     <g id="line2d_1">
      <defs>
       <path d="M 0 0 
L 0 3.5 
" id="mcb448d374f" style="stroke:#000000;stroke-width:0.8;"/>
      </defs>
      <g>
       <use style="stroke:#000000;stroke-width:0.8;" x="76.14635" xlink:href="#mcb448d374f" y="252"/>
      </g>
     </g>
     <g id="text_1">
      <!-- −3 -->
      <g transform="translate(68.775256 266.598437)scale(0.1 -0.1)">
       <defs>
        <path d="M 10.59375 35.5 
L 73.1875 35.5 
L 73.1875 27.203125 
L 10.59375 27.203125 
z
" id="DejaVuSans-8722"/>
        <path d="M 40.578125 39.3125 
Q 47.65625 37.796875 51.625 33 
Q 55.609375 28.21875 55.609375 21.1875 
Q 55.609375 10.40625 48.1875 4.484375 
Q 40.765625 -1.421875 27.09375 -1.421875 
Q 22.515625 -1.421875 17.65625 -0.515625 
Q 12.796875 0.390625 7.625 2.203125 
L 7.625 11.71875 
Q 11.71875 9.328125 16.59375 8.109375 
Q 21.484375 6.890625 26.8125 6.890625 
Q 36.078125 6.890625 40.9375 10.546875 
Q 45.796875 14.203125 45.796875 21.1875 
Q 45.796875 27.640625 41.28125 31.265625 
Q 36.765625 34.90625 28.71875 34.90625 
L 20.21875 34.90625 
L 20.21875 43.015625 
L 29.109375 43.015625 
Q 36.375 43.015625 40.234375 45.921875 
Q 44.09375 48.828125 44.09375 54.296875 
Q 44.09375 59.90625 40.109375 62.90625 
Q 36.140625 65.921875 28.71875 65.921875 
Q 24.65625 65.921875 20.015625 65.03125 
Q 15.375 64.15625 9.8125 62.3125 
L 9.8125 71.09375 
Q 15.4375 72.65625 20.34375 73.4375 
Q 25.25 74.21875 29.59375 74.21875 
Q 40.828125 74.21875 47.359375 69.109375 
Q 53.90625 64.015625 53.90625 55.328125 
Q 53.90625 49.265625 50.4375 45.09375 
Q 46.96875 40.921875 40.578125 39.3125 
z
" id="DejaVuSans-51"/>
       </defs>
       <use xlink:href="#DejaVuSans-8722"/>
       <use x="83.789062" xlink:href="#DejaVuSans-51"/>
      </g>
     </g>
    </g>
    <g id="xtick_2">
     <g id="line2d_2">
      <g>
       <use style="stroke:#000000;stroke-width:0.8;" x="125.07663" xlink:href="#mcb448d374f" y="252"/>
      </g>
     </g>
     <g id="text_2">
      <!-- −2 -->
      <g transform="translate(117.705536 266.598437)scale(0.1 -0.1)">
       <defs>
        <path d="M 19.1875 8.296875 
L 53.609375 8.296875 
L 53.609375 0 
L 7.328125 0 
L 7.328125 8.296875 
Q 12.9375 14.109375 22.625 23.890625 
Q 32.328125 33.6875 34.8125 36.53125 
Q 39.546875 41.84375 41.421875 45.53125 
Q 43.3125 49.21875 43.3125 52.78125 
Q 43.3125 58.59375 39.234375 62.25 
Q 35.15625 65.921875 28.609375 65.921875 
Q 23.96875 65.921875 18.8125 64.3125 
Q 13.671875 62.703125 7.8125 59.421875 
L 7.8125 69.390625 
Q 13.765625 71.78125 18.9375 73 
Q 24.125 74.21875 28.421875 74.21875 
Q 39.75 74.21875 46.484375 68.546875 
Q 53.21875 62.890625 53.21875 53.421875 
Q 53.21875 48.921875 51.53125 44.890625 
Q 49.859375 40.875 45.40625 35.40625 
Q 44.1875 33.984375 37.640625 27.21875 
Q 31.109375 20.453125 19.1875 8.296875 
z
" id="DejaVuSans-50"/>
       </defs>
       <use xlink:href="#DejaVuSans-8722"/>
       <use x="83.789062" xlink:href="#DejaVuSans-50"/>
      </g>
     </g>
    </g>
    <g id="xtick_3">
     <g id="line2d_3">
      <g>
       <use style="stroke:#000000;stroke-width:0.8;" x="174.00691" xlink:href="#mcb448d374f" y="252"/>
      </g>
     </g>
     <g id="text_3">
      <!-- −1 -->
      <g transform="translate(166.635816 266.598437)scale(0.1 -0.1)">
       <defs>
        <path d="M 12.40625 8.296875 
L 28.515625 8.296875 
L 28.515625 63.921875 
L 10.984375 60.40625 
L 10.984375 69.390625 
L 28.421875 72.90625 
L 38.28125 72.90625 
L 38.28125 8.296875 
L 54.390625 8.296875 
L 54.390625 0 
L 12.40625 0 
z
" id="DejaVuSans-49"/>
       </defs>
       <use xlink:href="#DejaVuSans-8722"/>
       <use x="83.789062" xlink:href="#DejaVuSans-49"/>
      </g>
     </g>
    </g>
    <g id="xtick_4">
     <g id="line2d_4">
      <g>
       <use style="stroke:#000000;stroke-width:0.8;" x="222.93719" xlink:href="#mcb448d374f" y="252"/>
      </g>
     </g>
     <g id="text_4">
      <!-- 0 -->
      <g transform="translate(219.75594 266.598437)scale(0.1 -0.1)">
       <defs>
        <path d="M 31.78125 66.40625 
Q 24.171875 66.40625 20.328125 58.90625 
Q 16.5 51.421875 16.5 36.375 
Q 16.5 21.390625 20.328125 13.890625 
Q 24.171875 6.390625 31.78125 6.390625 
Q 39.453125 6.390625 43.28125 13.890625 
Q 47.125 21.390625 47.125 36.375 
Q 47.125 51.421875 43.28125 58.90625 
Q 39.453125 66.40625 31.78125 66.40625 
z
M 31.78125 74.21875 
Q 44.046875 74.21875 50.515625 64.515625 
Q 56.984375 54.828125 56.984375 36.375 
Q 56.984375 17.96875 50.515625 8.265625 
Q 44.046875 -1.421875 31.78125 -1.421875 
Q 19.53125 -1.421875 13.0625 8.265625 
Q 6.59375 17.96875 6.59375 36.375 
Q 6.59375 54.828125 13.0625 64.515625 
Q 19.53125 74.21875 31.78125 74.21875 
z
" id="DejaVuSans-48"/>
       </defs>
       <use xlink:href="#DejaVuSans-48"/>
      </g>
     </g>
    </g>
    <g id="xtick_5">
     <g id="line2d_5">
      <g>
       <use style="stroke:#000000;stroke-width:0.8;" x="271.86747" xlink:href="#mcb448d374f" y="252"/>
      </g>
     </g>
     <g id="text_5">
      <!-- 1 -->
      <g transform="translate(268.68622 266.598437)scale(0.1 -0.1)">
       <use xlink:href="#DejaVuSans-49"/>
      </g>
     </g>
    </g>
    <g id="xtick_6">
     <g id="line2d_6">
      <g>
       <use style="stroke:#000000;stroke-width:0.8;" x="320.79775" xlink:href="#mcb448d374f" y="252"/>
      </g>
     </g>
     <g id="text_6">
      <!-- 2 -->
      <g transform="translate(317.6165 266.598437)scale(0.1 -0.1)">
       <use xlink:href="#DejaVuSans-50"/>
      </g>
     </g>
    </g>
    <g id="xtick_7">
     <g id="line2d_7">
      <g>
       <use style="stroke:#000000;stroke-width:0.8;" x="369.72803" xlink:href="#mcb448d374f" y="252"/>
      </g>
     </g>
     <g id="text_7">
      <!-- 3 -->
      <g transform="translate(366.54678 266.598437)scale(0.1 -0.1)">
       <use xlink:href="#DejaVuSans-51"/>
      </g>
     </g>
    </g>
    <g id="text_8">
     <!-- k -->
     <g transform="translate(218.504688 280.276563)scale(0.1 -0.1)">
      <defs>
       <path d="M 9.078125 75.984375 
L 18.109375 75.984375 
L 18.109375 31.109375 
L 44.921875 54.6875 
L 56.390625 54.6875 
L 27.390625 29.109375 
L 57.625 0 
L 45.90625 0 
L 18.109375 26.703125 
L 18.109375 0 
L 9.078125 0 
z
" id="DejaVuSans-107"/>
      </defs>
      <use xlink:href="#DejaVuSans-107"/>
     </g>
    </g>
   </g>
   <g id="matplotlib.axis_2">
    <g id="ytick_1">
     <g id="line2d_8">
      <defs>
       <path d="M 0 0 
L -3.5 0 
" id="mdf1dd3a32c" style="stroke:#000000;stroke-width:0.8;"/>
      </defs>
      <g>
       <use style="stroke:#000000;stroke-width:0.8;" x="54" xlink:href="#mdf1dd3a32c" y="242.116364"/>
      </g>
     </g>
     <g id="text_9">
      <!-- 0.00 -->
      <g transform="translate(24.734375 245.915582)scale(0.1 -0.1)">
       <defs>
        <path d="M 10.6875 12.40625 
L 21 12.40625 
L 21 0 
L 10.6875 0 
z
" id="DejaVuSans-46"/>
       </defs>
       <use xlink:href="#DejaVuSans-48"/>
       <use x="63.623047" xlink:href="#DejaVuSans-46"/>
       <use x="95.410156" xlink:href="#DejaVuSans-48"/>
       <use x="159.033203" xlink:href="#DejaVuSans-48"/>
      </g>
     </g>
    </g>
    <g id="ytick_2">
     <g id="line2d_9">
      <g>
       <use style="stroke:#000000;stroke-width:0.8;" x="54" xlink:href="#mdf1dd3a32c" y="213.216842"/>
      </g>
     </g>
     <g id="text_10">
      <!-- 0.05 -->
      <g transform="translate(24.734375 217.016061)scale(0.1 -0.1)">
       <defs>
        <path d="M 10.796875 72.90625 
L 49.515625 72.90625 
L 49.515625 64.59375 
L 19.828125 64.59375 
L 19.828125 46.734375 
Q 21.96875 47.46875 24.109375 47.828125 
Q 26.265625 48.1875 28.421875 48.1875 
Q 40.625 48.1875 47.75 41.5 
Q 54.890625 34.8125 54.890625 23.390625 
Q 54.890625 11.625 47.5625 5.09375 
Q 40.234375 -1.421875 26.90625 -1.421875 
Q 22.3125 -1.421875 17.546875 -0.640625 
Q 12.796875 0.140625 7.71875 1.703125 
L 7.71875 11.625 
Q 12.109375 9.234375 16.796875 8.0625 
Q 21.484375 6.890625 26.703125 6.890625 
Q 35.15625 6.890625 40.078125 11.328125 
Q 45.015625 15.765625 45.015625 23.390625 
Q 45.015625 31 40.078125 35.4375 
Q 35.15625 39.890625 26.703125 39.890625 
Q 22.75 39.890625 18.8125 39.015625 
Q 14.890625 38.140625 10.796875 36.28125 
z
" id="DejaVuSans-53"/>
       </defs>
       <use xlink:href="#DejaVuSans-48"/>
       <use x="63.623047" xlink:href="#DejaVuSans-46"/>
       <use x="95.410156" xlink:href="#DejaVuSans-48"/>
       <use x="159.033203" xlink:href="#DejaVuSans-53"/>
      </g>
     </g>
    </g>
    <g id="ytick_3">
     <g id="line2d_10">
      <g>
       <use style="stroke:#000000;stroke-width:0.8;" x="54" xlink:href="#mdf1dd3a32c" y="184.317321"/>
      </g>
     </g>
     <g id="text_11">
      <!-- 0.10 -->
      <g transform="translate(24.734375 188.116539)scale(0.1 -0.1)">
       <use xlink:href="#DejaVuSans-48"/>
       <use x="63.623047" xlink:href="#DejaVuSans-46"/>
       <use x="95.410156" xlink:href="#DejaVuSans-49"/>
       <use x="159.033203" xlink:href="#DejaVuSans-48"/>
      </g>
     </g>
    </g>
    <g id="ytick_4">
     <g id="line2d_11">
      <g>
       <use style="stroke:#000000;stroke-width:0.8;" x="54" xlink:href="#mdf1dd3a32c" y="155.417799"/>
      </g>
     </g>
     <g id="text_12">
      <!-- 0.15 -->
      <g transform="translate(24.734375 159.217018)scale(0.1 -0.1)">
       <use xlink:href="#DejaVuSans-48"/>
       <use x="63.623047" xlink:href="#DejaVuSans-46"/>
       <use x="95.410156" xlink:href="#DejaVuSans-49"/>
       <use x="159.033203" xlink:href="#DejaVuSans-53"/>
      </g>
     </g>
    </g>
    <g id="ytick_5">
     <g id="line2d_12">
      <g>
       <use style="stroke:#000000;stroke-width:0.8;" x="54" xlink:href="#mdf1dd3a32c" y="126.518278"/>
      </g>
     </g>
     <g id="text_13">
      <!-- 0.20 -->
      <g transform="translate(24.734375 130.317496)scale(0.1 -0.1)">
       <use xlink:href="#DejaVuSans-48"/>
       <use x="63.623047" xlink:href="#DejaVuSans-46"/>
       <use x="95.410156" xlink:href="#DejaVuSans-50"/>
       <use x="159.033203" xlink:href="#DejaVuSans-48"/>
      </g>
     </g>
    </g>
    <g id="ytick_6">
     <g id="line2d_13">
      <g>
       <use style="stroke:#000000;stroke-width:0.8;" x="54" xlink:href="#mdf1dd3a32c" y="97.618756"/>
      </g>
     </g>
     <g id="text_14">
      <!-- 0.25 -->
      <g transform="translate(24.734375 101.417975)scale(0.1 -0.1)">
       <use xlink:href="#DejaVuSans-48"/>
       <use x="63.623047" xlink:href="#DejaVuSans-46"/>
       <use x="95.410156" xlink:href="#DejaVuSans-50"/>
       <use x="159.033203" xlink:href="#DejaVuSans-53"/>
      </g>
     </g>
    </g>
    <g id="ytick_7">
     <g id="line2d_14">
      <g>
       <use style="stroke:#000000;stroke-width:0.8;" x="54" xlink:href="#mdf1dd3a32c" y="68.719234"/>
      </g>
     </g>
     <g id="text_15">
      <!-- 0.30 -->
      <g transform="translate(24.734375 72.518453)scale(0.1 -0.1)">
       <use xlink:href="#DejaVuSans-48"/>
       <use x="63.623047" xlink:href="#DejaVuSans-46"/>
       <use x="95.410156" xlink:href="#DejaVuSans-51"/>
       <use x="159.033203" xlink:href="#DejaVuSans-48"/>
      </g>
     </g>
    </g>
    <g id="ytick_8">
     <g id="line2d_15">
      <g>
       <use style="stroke:#000000;stroke-width:0.8;" x="54" xlink:href="#mdf1dd3a32c" y="39.819713"/>
      </g>
     </g>
     <g id="text_16">
      <!-- 0.35 -->
      <g transform="translate(24.734375 43.618932)scale(0.1 -0.1)">
       <use xlink:href="#DejaVuSans-48"/>
       <use x="63.623047" xlink:href="#DejaVuSans-46"/>
       <use x="95.410156" xlink:href="#DejaVuSans-51"/>
       <use x="159.033203" xlink:href="#DejaVuSans-53"/>
      </g>
     </g>
    </g>
    <g id="text_17">
     <!-- I -->
     <g transform="translate(18.654688 144.755)rotate(-90)scale(0.1 -0.1)">
      <defs>
       <path d="M 9.8125 72.90625 
L 19.671875 72.90625 
L 19.671875 0 
L 9.8125 0 
z
" id="DejaVuSans-73"/>
      </defs>
      <use xlink:href="#DejaVuSans-73"/>
     </g>
    </g>
   </g>
   <g id="patch_3">
    <path d="M 54 252 
L 54 34.56 
" style="fill:none;stroke:#000000;stroke-linecap:square;stroke-linejoin:miter;stroke-width:0.8;"/>
   </g>
   <g id="patch_4">
    <path d="M 388.8 252 
L 388.8 34.56 
" style="fill:none;stroke:#000000;stroke-linecap:square;stroke-linejoin:miter;stroke-width:0.8;"/>
   </g>
   <g id="patch_5">
    <path d="M 54 252 
L 388.8 252 
" style="fill:none;stroke:#000000;stroke-linecap:square;stroke-linejoin:miter;stroke-width:0.8;"/>
   </g>
   <g id="patch_6">
    <path d="M 54 34.56 
L 388.8 34.56 
" style="fill:none;stroke:#000000;stroke-linecap:square;stroke-linejoin:miter;stroke-width:0.8;"/>
   </g>
   <g id="text_18">
    <!-- phonon 66, w = 2.02 -->
    <g transform="translate(158.3775 28.56)scale(0.12 -0.12)">
     <defs>
      <path d="M 18.109375 8.203125 
L 18.109375 -20.796875 
L 9.078125 -20.796875 
L 9.078125 54.6875 
L 18.109375 54.6875 
L 18.109375 46.390625 
Q 20.953125 51.265625 25.265625 53.625 
Q 29.59375 56 35.59375 56 
Q 45.5625 56 51.78125 48.09375 
Q 58.015625 40.1875 58.015625 27.296875 
Q 58.015625 14.40625 51.78125 6.484375 
Q 45.5625 -1.421875 35.59375 -1.421875 
Q 29.59375 -1.421875 25.265625 0.953125 
Q 20.953125 3.328125 18.109375 8.203125 
z
M 48.6875 27.296875 
Q 48.6875 37.203125 44.609375 42.84375 
Q 40.53125 48.484375 33.40625 48.484375 
Q 26.265625 48.484375 22.1875 42.84375 
Q 18.109375 37.203125 18.109375 27.296875 
Q 18.109375 17.390625 22.1875 11.75 
Q 26.265625 6.109375 33.40625 6.109375 
Q 40.53125 6.109375 44.609375 11.75 
Q 48.6875 17.390625 48.6875 27.296875 
z
" id="DejaVuSans-112"/>
      <path d="M 54.890625 33.015625 
L 54.890625 0 
L 45.90625 0 
L 45.90625 32.71875 
Q 45.90625 40.484375 42.875 44.328125 
Q 39.84375 48.1875 33.796875 48.1875 
Q 26.515625 48.1875 22.3125 43.546875 
Q 18.109375 38.921875 18.109375 30.90625 
L 18.109375 0 
L 9.078125 0 
L 9.078125 75.984375 
L 18.109375 75.984375 
L 18.109375 46.1875 
Q 21.34375 51.125 25.703125 53.5625 
Q 30.078125 56 35.796875 56 
Q 45.21875 56 50.046875 50.171875 
Q 54.890625 44.34375 54.890625 33.015625 
z
" id="DejaVuSans-104"/>
      <path d="M 30.609375 48.390625 
Q 23.390625 48.390625 19.1875 42.75 
Q 14.984375 37.109375 14.984375 27.296875 
Q 14.984375 17.484375 19.15625 11.84375 
Q 23.34375 6.203125 30.609375 6.203125 
Q 37.796875 6.203125 41.984375 11.859375 
Q 46.1875 17.53125 46.1875 27.296875 
Q 46.1875 37.015625 41.984375 42.703125 
Q 37.796875 48.390625 30.609375 48.390625 
z
M 30.609375 56 
Q 42.328125 56 49.015625 48.375 
Q 55.71875 40.765625 55.71875 27.296875 
Q 55.71875 13.875 49.015625 6.21875 
Q 42.328125 -1.421875 30.609375 -1.421875 
Q 18.84375 -1.421875 12.171875 6.21875 
Q 5.515625 13.875 5.515625 27.296875 
Q 5.515625 40.765625 12.171875 48.375 
Q 18.84375 56 30.609375 56 
z
" id="DejaVuSans-111"/>
      <path d="M 54.890625 33.015625 
L 54.890625 0 
L 45.90625 0 
L 45.90625 32.71875 
Q 45.90625 40.484375 42.875 44.328125 
Q 39.84375 48.1875 33.796875 48.1875 
Q 26.515625 48.1875 22.3125 43.546875 
Q 18.109375 38.921875 18.109375 30.90625 
L 18.109375 0 
L 9.078125 0 
L 9.078125 54.6875 
L 18.109375 54.6875 
L 18.109375 46.1875 
Q 21.34375 51.125 25.703125 53.5625 
Q 30.078125 56 35.796875 56 
Q 45.21875 56 50.046875 50.171875 
Q 54.890625 44.34375 54.890625 33.015625 
z
" id="DejaVuSans-110"/>
      <path id="DejaVuSans-32"/>
      <path d="M 33.015625 40.375 
Q 26.375 40.375 22.484375 35.828125 
Q 18.609375 31.296875 18.609375 23.390625 
Q 18.609375 15.53125 22.484375 10.953125 
Q 26.375 6.390625 33.015625 6.390625 
Q 39.65625 6.390625 43.53125 10.953125 
Q 47.40625 15.53125 47.40625 23.390625 
Q 47.40625 31.296875 43.53125 35.828125 
Q 39.65625 40.375 33.015625 40.375 
z
M 52.59375 71.296875 
L 52.59375 62.3125 
Q 48.875 64.0625 45.09375 64.984375 
Q 41.3125 65.921875 37.59375 65.921875 
Q 27.828125 65.921875 22.671875 59.328125 
Q 17.53125 52.734375 16.796875 39.40625 
Q 19.671875 43.65625 24.015625 45.921875 
Q 28.375 48.1875 33.59375 48.1875 
Q 44.578125 48.1875 50.953125 41.515625 
Q 57.328125 34.859375 57.328125 23.390625 
Q 57.328125 12.15625 50.6875 5.359375 
Q 44.046875 -1.421875 33.015625 -1.421875 
Q 20.359375 -1.421875 13.671875 8.265625 
Q 6.984375 17.96875 6.984375 36.375 
Q 6.984375 53.65625 15.1875 63.9375 
Q 23.390625 74.21875 37.203125 74.21875 
Q 40.921875 74.21875 44.703125 73.484375 
Q 48.484375 72.75 52.59375 71.296875 
z
" id="DejaVuSans-54"/>
      <path d="M 11.71875 12.40625 
L 22.015625 12.40625 
L 22.015625 4 
L 14.015625 -11.625 
L 7.71875 -11.625 
L 11.71875 4 
z
" id="DejaVuSans-44"/>
      <path d="M 4.203125 54.6875 
L 13.1875 54.6875 
L 24.421875 12.015625 
L 35.59375 54.6875 
L 46.1875 54.6875 
L 57.421875 12.015625 
L 68.609375 54.6875 
L 77.59375 54.6875 
L 63.28125 0 
L 52.6875 0 
L 40.921875 44.828125 
L 29.109375 0 
L 18.5 0 
z
" id="DejaVuSans-119"/>
      <path d="M 10.59375 45.40625 
L 73.1875 45.40625 
L 73.1875 37.203125 
L 10.59375 37.203125 
z
M 10.59375 25.484375 
L 73.1875 25.484375 
L 73.1875 17.1875 
L 10.59375 17.1875 
z
" id="DejaVuSans-61"/>
     </defs>
     <use xlink:href="#DejaVuSans-112"/>
     <use x="63.476562" xlink:href="#DejaVuSans-104"/>
     <use x="126.855469" xlink:href="#DejaVuSans-111"/>
     <use x="188.037109" xlink:href="#DejaVuSans-110"/>
     <use x="251.416016" xlink:href="#DejaVuSans-111"/>
     <use x="312.597656" xlink:href="#DejaVuSans-110"/>
     <use x="375.976562" xlink:href="#DejaVuSans-32"/>
     <use x="407.763672" xlink:href="#DejaVuSans-54"/>
     <use x="471.386719" xlink:href="#DejaVuSans-54"/>
     <use x="535.009766" xlink:href="#DejaVuSans-44"/>
     <use x="566.796875" xlink:href="#DejaVuSans-32"/>
     <use x="598.583984" xlink:href="#DejaVuSans-119"/>
     <use x="680.371094" xlink:href="#DejaVuSans-32"/>
     <use x="712.158203" xlink:href="#DejaVuSans-61"/>
     <use x="795.947266" xlink:href="#DejaVuSans-32"/>
     <use x="827.734375" xlink:href="#DejaVuSans-50"/>
     <use x="891.357422" xlink:href="#DejaVuSans-46"/>
     <use x="923.144531" xlink:href="#DejaVuSans-48"/>
     <use x="986.767578" xlink:href="#DejaVuSans-50"/>
    </g>
   </g>
  </g>
 </g>
 <defs>
  <clipPath id="p56ffbaf713">
   <rect height="217.44" width="334.8" x="54" y="34.56"/>
  </clipPath>
 </defs>
</svg>
